<?xml version="1.0" encoding="utf-8"?>
<!-- Generator: Adobe Illustrator 16.2.0, SVG Export Plug-In . SVG Version: 6.00 Build 0)  -->
<!DOCTYPE svg PUBLIC "-//W3C//DTD SVG 1.1//EN" "http://www.w3.org/Graphics/SVG/1.1/DTD/svg11.dtd">
<svg version="1.1" id="Layer_1" xmlns="http://www.w3.org/2000/svg" xmlns:xlink="http://www.w3.org/1999/xlink" x="0px" y="0px"
	 width="4.41px" height="4.41px" viewBox="0 0 4.41 4.41" enable-background="new 0 0 4.41 4.41" xml:space="preserve">
<g>
	<g>
		<path fill="#F6EB16" d="M2.208,0.11c1.157,0,2.092,0.936,2.092,2.094c0,1.098-0.844,1.999-1.914,2.086
			C2.328,4.301,2.268,4.301,2.208,4.301c-0.157,0-0.309-0.016-0.454-0.049C0.813,4.042,0.11,3.203,0.11,2.204
			C0.11,1.046,1.052,0.11,2.208,0.11 M2.208,0.003c-1.216,0-2.206,0.988-2.206,2.201c0,1.021,0.727,1.928,1.728,2.153
			c0.151,0.033,0.312,0.05,0.478,0.05c0.065,0,0.132,0,0.197-0.01c1.118-0.091,2.003-1.054,2.003-2.193
			C4.408,0.991,3.422,0.003,2.208,0.003L2.208,0.003z"/>
	</g>
	<g>
		<path fill="#F6EB16" d="M2.446,1.765c0.032-0.038,0.097-0.065,0.189-0.065c0.086,0,0.189,0.013,0.286,0.04L3.004,1.3
			c-0.168-0.059-0.341-0.075-0.52-0.075S2.165,1.252,2.052,1.317C1.938,1.38,1.862,1.451,1.819,1.555
			C1.776,1.647,1.754,1.803,1.754,1.998v0.173H1.408v0.502h0.347v1.579C1.9,4.285,2.052,4.301,2.208,4.301
			c0.059,0,0.119,0,0.178-0.011V2.673h0.459V2.171H2.387V2.009C2.387,1.885,2.403,1.809,2.446,1.765z"/>
	</g>
</g>
</svg>
