<?xml version="1.0" encoding="utf-8"?>
<!-- Generator: Adobe Illustrator 16.2.0, SVG Export Plug-In . SVG Version: 6.00 Build 0)  -->
<!DOCTYPE svg PUBLIC "-//W3C//DTD SVG 1.1//EN" "http://www.w3.org/Graphics/SVG/1.1/DTD/svg11.dtd">
<svg version="1.1" id="Layer_1" xmlns="http://www.w3.org/2000/svg" xmlns:xlink="http://www.w3.org/1999/xlink" x="0px" y="0px"
	 width="4.41px" height="4.41px" viewBox="0 0 4.41 4.41" enable-background="new 0 0 4.41 4.41" xml:space="preserve">
<g>
	<g>
		<path fill="#F6EB16" d="M2.202,0.112c1.158,0,2.096,0.939,2.096,2.096c0,1.158-0.938,2.096-2.096,2.096
			c-1.156,0-2.095-0.938-2.095-2.096C0.107,1.052,1.046,0.112,2.202,0.112 M2.202,0.005C0.987,0.005,0,0.993,0,2.208
			s0.987,2.203,2.202,2.203s2.203-0.988,2.203-2.203S3.417,0.005,2.202,0.005L2.202,0.005z"/>
	</g>
	<g>
		<path fill-rule="evenodd" clip-rule="evenodd" fill="#F6EB16" d="M3.036,1.077c-0.555,0-1.111,0-1.666,0
			c-0.198,0-0.301,0.105-0.301,0.303c0,0.275,0,0.551,0,0.828c0,0.275,0,0.558,0,0.835c0,0.191,0.105,0.296,0.291,0.296
			c0.561,0,1.117,0,1.676,0c0.193,0,0.3-0.104,0.3-0.298c0-0.558,0-1.11,0-1.668C3.336,1.183,3.229,1.077,3.036,1.077z M2.853,1.334
			c0.225,0,0.225,0,0.225,0.225c0,0.219,0,0.219-0.221,0.219c-0.223,0-0.223,0-0.223-0.223C2.634,1.334,2.634,1.334,2.853,1.334z
			 M2.204,1.769c0.236,0,0.439,0.204,0.436,0.439C2.638,2.45,2.437,2.649,2.196,2.646C1.958,2.642,1.757,2.439,1.763,2.204
			C1.769,1.966,1.968,1.769,2.204,1.769z M3.077,2.948C3.075,3.054,3.048,3.083,2.942,3.083c-0.247,0-0.494,0-0.741,0
			c-0.245,0-0.492,0-0.739,0c-0.104,0-0.133-0.029-0.133-0.135c0-0.273,0.001-0.551-0.004-0.826c0-0.078,0.021-0.095,0.094-0.093
			c0.104,0.009,0.105,0.004,0.094,0.105C1.473,2.483,1.715,2.824,2.06,2.892c0.355,0.067,0.711-0.146,0.809-0.486
			C2.897,2.299,2.906,2.185,2.884,2.08C2.876,2.04,2.886,2.033,2.921,2.033c0.156-0.013,0.156-0.015,0.156,0.147
			C3.077,2.433,3.077,2.691,3.077,2.948z"/>
	</g>
</g>
</svg>
