<?xml version="1.0" encoding="utf-8"?>
<!-- Generator: Adobe Illustrator 16.2.0, SVG Export Plug-In . SVG Version: 6.00 Build 0)  -->
<!DOCTYPE svg PUBLIC "-//W3C//DTD SVG 1.1//EN" "http://www.w3.org/Graphics/SVG/1.1/DTD/svg11.dtd">
<svg version="1.1" id="Layer_1" xmlns="http://www.w3.org/2000/svg" xmlns:xlink="http://www.w3.org/1999/xlink" x="0px" y="0px"
	 width="4.41px" height="4.41px" viewBox="0 0 4.41 4.41" enable-background="new 0 0 4.41 4.41" xml:space="preserve">
<path fill="none" d="M0.615,1.329v0.666h0.577V1.329c0-0.07,0.057-0.126,0.126-0.126h0.692V0.625H1.318
	C0.931,0.625,0.615,0.94,0.615,1.329z"/>
<path fill="none" d="M3.218,3.082c0,0.069-0.057,0.125-0.126,0.125H2.399v0.578h0.692c0.388,0,0.703-0.315,0.703-0.703V2.416H3.218
	V3.082z"/>
<path fill="none" d="M0.615,1.329v0.666h0.577V1.329c0-0.07,0.057-0.126,0.126-0.126h0.692V0.625H1.318
	C0.931,0.625,0.615,0.94,0.615,1.329z"/>
<path fill="none" d="M3.218,3.082c0,0.069-0.057,0.125-0.126,0.125H2.399v0.578h0.692c0.388,0,0.703-0.315,0.703-0.703V2.416H3.218
	V3.082z"/>
<path fill="none" d="M0.615,1.329v0.666h0.577V1.329c0-0.07,0.057-0.126,0.126-0.126h0.692V0.625H1.318
	C0.931,0.625,0.615,0.94,0.615,1.329z"/>
<path fill="none" d="M3.218,3.082c0,0.069-0.057,0.125-0.126,0.125H2.399v0.578h0.692c0.388,0,0.703-0.315,0.703-0.703V2.416H3.218
	V3.082z"/>
<g>
	<g>
		<path fill="#FFFF00" d="M0.912,1.532V2.11h0.502V1.532c0-0.061,0.049-0.109,0.109-0.109h0.601V0.921H1.523
			C1.187,0.921,0.912,1.195,0.912,1.532z"/>
		<path fill="#FFFF00" d="M2.995,2.3v0.579c0,0.06-0.049,0.108-0.108,0.108H2.286v0.502h0.601c0.336,0,0.61-0.274,0.61-0.61V2.3
			H2.995z"/>
	</g>
	<g>
		<path fill="#F5EA14" d="M2.208,0.11c1.157,0,2.093,0.936,2.093,2.094c0,1.098-0.844,1.999-1.915,2.086
			C2.327,4.301,2.267,4.301,2.208,4.301c-0.157,0-0.309-0.016-0.455-0.049c-0.94-0.21-1.644-1.049-1.644-2.048
			C0.109,1.046,1.051,0.11,2.208,0.11 M2.208,0.003c-1.217,0-2.206,0.988-2.206,2.201c0,1.021,0.727,1.928,1.728,2.153
			c0.151,0.033,0.313,0.05,0.479,0.05c0.064,0,0.131,0,0.196-0.01c1.119-0.091,2.004-1.054,2.004-2.193
			C4.408,0.991,3.422,0.003,2.208,0.003L2.208,0.003z"/>
	</g>
</g>
</svg>
